<svg xmlns="http://www.w3.org/2000/svg" xmlns:xlink="http://www.w3.org/1999/xlink" xmlns:lucid="lucid" width="1416.31" height="603"><g transform="translate(-8226.165993141554 1666.813117542092)" lucid:page-tab-id="0_0"><path d="M-23500-12000h44500v27000h-44500z" fill="#fff"/><path d="M8408.13-1659.3a6 6 0 0 1 6-6h1220.85a6 6 0 0 1 6 6v588a6 6 0 0 1-6 6H8414.13a6 6 0 0 1-6-6z" stroke="#232f3e" stroke-width="3" fill="#fff"/><path d="M8408.13-1665.3h56v56h-56v-56z" stroke="#fff" stroke-opacity="0" fill="#232f3e"/><path d="M8449-1624.1h-25c-4.12.06-7.56-3.08-7.88-7.2v-.63c-.16-3.4 1.96-6.38 5.24-7.36v-.65c.12-4.22 2.44-7.75 6.24-9.58 4.12-1.84 8.72-.94 11.8 2.33 1.08 1.08 1.84 2.2 2.44 3.58 1.2-1 2.73-1.32 4.25-.9 2.23.8 3.67 2.75 3.75 5.1 3.68.66 6.32 3.8 6.28 7.57 0 7.07-7.04 7.73-7.12 7.75zm-26.68-13.87c-2.84.6-4.76 3.14-4.6 6.04v.53c.28 3.32 3.08 5.83 6.4 5.75h24.97c3.03-.3 5.4-2.64 5.67-5.7.28-3.43-2.24-6.5-5.68-6.78-.45-.05-.73-.45-.65-.87.08-1.85-1-3.45-2.73-4.14-1.3-.37-2.64.13-3.43 1.24-.22.24-.46.37-.78.32-.28-.06-.48-.24-.6-.5-.6-1.62-1.4-2.86-2.6-4.04-2.68-2.8-6.6-3.6-10.12-2-3.24 1.6-5.2 4.64-5.32 8.25-.04.4-.04.74 0 1.13.04.4-.2.77-.6.85z" stroke="#fff" stroke-opacity="0" fill="#fff"/><use xlink:href="#a" transform="matrix(1,0,0,1,8479.127430357496,-1645.3131175372646) translate(0 18.50043402777778)"/><use xlink:href="#b" transform="matrix(1,0,0,1,8479.127430357496,-1645.3131175372646) translate(80.01302083333334 18.50043402777778)"/><use xlink:href="#c" transform="matrix(1,0,0,1,8479.127430357496,-1645.3131175372646) translate(173.3615451388889 18.50043402777778)"/><path d="M8528.13-1372.6h120v120h-120v-120z" stroke="#000" stroke-opacity="0" fill="#7aa116"/><path d="M8619.36-1308.23l.57-4.12c5.33 3.2 5.4 4.53 5.4 4.53s-.96.76-5.97-.4zm-2.9-.85c-9.2-2.77-21.97-8.65-27.14-11.08v-.1c0-1.92-1.6-3.6-3.63-3.6s-3.65 1.68-3.65 3.6c0 2.03 1.62 3.63 3.64 3.63.88 0 1.68-.34 2.25-.84 6.13 2.85 18.8 8.65 28.1 11.42l-3.7 25.8v.24c0 2.26-10.1 6.37-26.5 6.37-16.64 0-26.82-4.1-26.82-6.38v-.26l-7.67-55.78c6.63 4.54 20.84 6.97 34.5 6.97 13.56 0 27.77-2.43 34.4-6.97l-3.8 26.96zm-65.9-32.84c.16-1.93 11.46-9.66 35.3-9.66 23.8 0 35.12 7.73 35.28 9.66v.67c-1.37 4.45-16.07 9.16-35.3 9.16-19.3 0-34-4.7-35.28-9.15v-.67zm73.57.1c0-5.22-14.94-12.78-38.28-12.78-23.34 0-38.28 7.56-38.28 12.76l.16 1.1 8.32 60.8c.16 6.82 18.33 9.34 29.8 9.34 14.2 0 29.3-3.28 29.48-9.33l3.63-25.37c2.02.5 3.63.76 4.93.76 1.76 0 2.97-.42 3.7-1.34.65-.67.8-1.5.65-2.44-.33-2.1-2.83-4.37-7.84-7.22l3.57-25.12.16-1.17z" stroke="#000" stroke-opacity="0" fill="#fff"/><use xlink:href="#d" transform="matrix(1,0,0,1,8498.127430357494,-1243.6033646272308) translate(76.66449652777777 18.489583333333332)"/><path d="M8728.13-1372.6h120v120h-120v-120z" stroke="#000" stroke-opacity="0" fill="#e7157b"/><path d="M8808.68-1273.63c-3.24 0-5.83-2.6-5.83-5.88 0-3.2 2.6-5.8 5.83-5.8 3.24 0 5.83 2.6 5.83 5.8 0 3.27-2.58 5.87-5.82 5.87zm-12.8-25.45h-15.47l-7.76-13.52 7.77-13.53h15.48l7.78 13.53-7.78 13.52zm-26.24-40.82c-3.24 0-5.83-2.6-5.83-5.8 0-3.27 2.6-5.88 5.84-5.88 3.16 0 5.83 2.6 5.83 5.88 0 3.2-2.67 5.8-5.83 5.8zm39.04 51.57c-1.13 0-2.2.25-3.16.6l-6.32-10.76-.32.18 7.78-13.53c.24-.5.24-1 0-1.5l-8.6-14.96c-.3-.52-.8-.77-1.3-.77h-15.7l.08-.08-5.83-9.83c1.95-1.68 3.17-4.03 3.17-6.72 0-4.95-3.97-8.9-8.83-8.9-4.86 0-8.83 3.94-8.83 8.9 0 4.87 3.98 8.82 8.84 8.82 1.05 0 2.1-.25 3.16-.6l5.34 9.25-8.5 14.87c-.33.5-.33 1 0 1.5l8.58 14.96c.25.5.73.76 1.3.76h17.58l5.83 9.9c-1.86 1.7-3.08 4.05-3.08 6.73 0 4.95 3.97 8.9 8.83 8.9 4.86 0 8.83-3.95 8.83-8.9 0-4.88-3.96-8.83-8.82-8.83zm8.9-36.12c-3.23 0-5.82-2.6-5.82-5.88 0-3.2 2.6-5.88 5.83-5.88 3.15 0 5.82 2.68 5.82 5.87 0 3.28-2.67 5.88-5.83 5.88zm10.94 11.1l-5.67-9.84c2.1-1.67 3.5-4.2 3.5-7.13 0-4.87-3.9-8.82-8.76-8.82-1.3 0-2.44.26-3.5.68l-4.6-7.98c-.33-.5-.82-.76-1.3-.76h-18.56v2.93h17.66l4.3 7.47c-1.8 1.6-2.84 3.95-2.84 6.47 0 4.88 3.97 8.9 8.83 8.9.88 0 1.77-.16 2.58-.4l5.27 9.23-7.45 12.93 2.6 1.52 7.92-13.7c.25-.5.25-1 0-1.5zm-68.52 23.6c-3.16 0-5.83-2.6-5.83-5.88 0-3.2 2.67-5.8 5.83-5.8 3.24 0 5.83 2.6 5.83 5.8 0 3.27-2.6 5.88-5.83 5.88zm4.94 1.5c2.35-1.6 3.9-4.28 3.9-7.38 0-4.88-3.98-8.82-8.84-8.82-1.38 0-2.67.33-3.9.92l-5.17-9.07 8.58-15.04-2.58-1.5-9.07 15.78c-.24.5-.24 1 0 1.5l5.83 10.1c-1.54 1.6-2.43 3.77-2.43 6.13 0 4.95 3.9 8.9 8.75 8.9.73 0 1.46-.1 2.2-.25l4.68 8.23c.33.5.8.76 1.3.76h18.55v-2.93h-17.66l-4.13-7.3z" stroke="#000" stroke-opacity="0" fill="#fff"/><use xlink:href="#e" transform="matrix(1,0,0,1,8698.127430357492,-1243.6033646272308) translate(9.986979166666643 18.489583333333332)"/><use xlink:href="#f" transform="matrix(1,0,0,1,8698.127430357492,-1243.6033646272308) translate(23.322482638888864 18.489583333333332)"/><path d="M9097.4-1398.88h43.25v-5.4h-43.24v5.4zm0-33.36h43.25v-5.52h-43.24v5.52zm0-33.48h43.25v-5.4h-43.24v5.4zm-18.94 68.52v-8.76h8.92v8.76h-8.92zm-2.76 5.52h14.44c1.57 0 2.76-1.2 2.76-2.76v-14.28c0-1.56-1.2-2.76-2.76-2.76h-14.44c-1.47 0-2.67 1.2-2.67 2.76v14.28c0 1.56 1.2 2.76 2.67 2.76zm2.76-38.88v-8.88h8.92v8.88h-8.92zm-2.76 5.52h14.44c1.57 0 2.76-1.32 2.76-2.76v-14.4c0-1.44-1.2-2.64-2.76-2.64h-14.44c-1.47 0-2.67 1.2-2.67 2.64v14.4c0 1.44 1.2 2.76 2.67 2.76zm2.76-38.88v-8.88h8.92v8.88h-8.92zm-2.76 5.4h14.44c1.57 0 2.76-1.2 2.76-2.76v-14.28c0-1.44-1.2-2.76-2.76-2.76h-14.44c-1.47 0-2.67 1.32-2.67 2.76v14.28c0 1.56 1.2 2.76 2.67 2.76zm-9.2 80.52v-109.2h80.96v109.2h-80.96zm83.72-114.6h-86.48c-1.57 0-2.76 1.2-2.76 2.76v114.48c0 1.56 1.2 2.76 2.76 2.76h86.48c1.56 0 2.76-1.2 2.76-2.76v-114.48c0-1.56-1.2-2.76-2.76-2.76z" stroke="#000" stroke-opacity="0" fill="#ed7100"/><use xlink:href="#g" transform="matrix(1,0,0,1,9030.979390484643,-1363.6033646272308) translate(22.657986111111114 18.489583333333332)"/><use xlink:href="#h" transform="matrix(1,0,0,1,9030.979390484643,-1363.6033646272308) translate(76 18.489583333333332)"/><path d="M9097.4-1158.88h43.25v-5.4h-43.24v5.4zm0-33.36h43.25v-5.52h-43.24v5.52zm0-33.48h43.25v-5.4h-43.24v5.4zm-18.94 68.52v-8.76h8.92v8.76h-8.92zm-2.76 5.52h14.44c1.57 0 2.76-1.2 2.76-2.76v-14.28c0-1.56-1.2-2.76-2.76-2.76h-14.44c-1.47 0-2.67 1.2-2.67 2.76v14.28c0 1.56 1.2 2.76 2.67 2.76zm2.76-38.88v-8.88h8.92v8.88h-8.92zm-2.76 5.52h14.44c1.57 0 2.76-1.32 2.76-2.76v-14.4c0-1.44-1.2-2.64-2.76-2.64h-14.44c-1.47 0-2.67 1.2-2.67 2.64v14.4c0 1.44 1.2 2.76 2.67 2.76zm2.76-38.88v-8.88h8.92v8.88h-8.92zm-2.76 5.4h14.44c1.57 0 2.76-1.2 2.76-2.76v-14.28c0-1.44-1.2-2.76-2.76-2.76h-14.44c-1.47 0-2.67 1.32-2.67 2.76v14.28c0 1.56 1.2 2.76 2.67 2.76zm-9.2 80.52v-109.2h80.96v109.2h-80.96zm83.72-114.6h-86.48c-1.57 0-2.76 1.2-2.76 2.76v114.48c0 1.56 1.2 2.76 2.76 2.76h86.48c1.56 0 2.76-1.2 2.76-2.76v-114.48c0-1.56-1.2-2.76-2.76-2.76z" stroke="#000" stroke-opacity="0" fill="#ed7100"/><use xlink:href="#g" transform="matrix(1,0,0,1,9030.979390484643,-1123.6033646272308) translate(22.657986111111114 18.489583333333332)"/><use xlink:href="#h" transform="matrix(1,0,0,1,9030.979390484643,-1123.6033646272308) translate(76 18.489583333333332)"/><path d="M9043.5-1431.13h-36.46l-.77.06-.7.17-.64.27-.6.37-.55.46-.46.54-.37.6-.27.66-.17.7-.05.75v82.92l-.08 1.1-.28 1.15-.46 1.1-.6 1-.77.88-.9.76-1 .62-1.08.44-1.15.28-1.1.1h-145.42v-2.96h145.3l.76-.06.68-.17.65-.26.6-.37.55-.46.46-.53.37-.6.28-.66.16-.68.06-.77v-82.9l.1-1.12.27-1.14.44-1.1.63-1 .76-.9.88-.75 1-.62 1.1-.45 1.13-.27 1.12-.08h36.57z" stroke="#6f7681" stroke-width=".05" fill="#6f7681"/><path d="M9057.98-1432.6l-13 7.5v-15z" fill="#6f7681"/><path d="M9060.93-1432.6l-17.42 10.05v-20.1zm-14.47 4.94l8.57-4.94-8.57-4.95z" stroke="#6f7681" stroke-width=".05" fill="#6f7681"/><path d="M8849.67-1336.2h-1.54v-2.96h1.54z" fill="#6f7681"/><path stroke="#6f7681" stroke-width=".05" fill="#6f7681"/><use xlink:href="#i" transform="matrix(1,0,0,1,8914.547174101308,-1347.0589639606392) translate(0 14.791666666666668)"/><use xlink:href="#i" transform="matrix(1,0,0,1,8902.795210555929,-1347.0589639606392) translate(0 14.791666666666668)"/><use xlink:href="#j" transform="matrix(1,0,0,1,8861.912579186761,-1360.4296236828616) translate(0 14.791666666666668)"/><use xlink:href="#k" transform="matrix(1,0,0,1,8861.912579186761,-1360.4296236828616) translate(42.673611111111114 14.791666666666668)"/><path d="M8996.15-1289.66l1.14.27 1.08.46 1 .62.9.76.75.9.6 1 .46 1.08.27 1.14.08 1.1v83.68l.06.76.18.7.27.65.37.6.46.54.54.45.6.37.66.28.7.16.76.06h36.45v2.95h-36.58l-1.1-.1-1.15-.26-1.1-.44-1-.6-.88-.78-.77-.9-.6-1-.46-1.07-.28-1.13-.1-1.12v-83.66l-.06-.78-.16-.7-.27-.64-.36-.6-.46-.55-.54-.46-.6-.37-.66-.27-.7-.17-.76-.06h-145.3v-2.95h145.42z" stroke="#6f7681" stroke-width=".05" fill="#6f7681"/><path d="M9057.98-1192.6l-13 7.5v-15z" fill="#6f7681"/><path d="M9060.93-1192.6l-17.42 10.05v-20.1zm-14.47 4.94l8.57-4.94-8.57-4.95z" stroke="#6f7681" stroke-width=".05" fill="#6f7681"/><path d="M8849.67-1286.8h-1.54v-2.95h1.54z" fill="#6f7681"/><path stroke="#6f7681" stroke-width=".05" fill="#6f7681"/><use xlink:href="#l" transform="matrix(1,0,0,1,8875.811446245938,-1284.2729709474468) translate(0 14.791666666666668)"/><use xlink:href="#m" transform="matrix(1,0,0,1,8875.811446245938,-1284.2729709474468) translate(42.673611111111114 14.791666666666668)"/><path d="M9227.4-1492.6h120v120h-120v-120z" stroke="#000" stroke-opacity="0" fill="#e7157b"/><path d="M9270.52-1427.14l4.45-4.42c.26-.28.42-.7.42-1.1 0-.35-.1-.76-.43-1.04l-4.45-4.48-2.18 2.07 1.93 1.92h-6.9v3.04h6.98l-2 1.93 2.17 2.06zm34.36.13l5.96-4.5c.42-.27.6-.68.6-1.16 0-.5-.18-.9-.6-1.18l-5.96-4.48-1.85 2.35 2.43 1.8h-6.04v3.03h6.05l-2.44 1.8 1.85 2.33zm-24.7-5.66c0 3.17-.5 6.14-1.5 8.76 2.68-1.03 5.7-1.6 8.73-1.6 3.1 0 6.14.57 8.83 1.6-1-2.62-1.6-5.6-1.6-8.76 0-3.18.6-6.14 1.6-8.77-5.38 2.07-12.18 2.07-17.56 0 1 2.63 1.5 5.6 1.5 8.77zm-7.3 14.5c-.34-.3-.43-.7-.43-1.05 0-.42.1-.84.42-1.1 2.7-2.7 4.37-7.33 4.37-12.36 0-5.04-1.68-9.66-4.37-12.35-.33-.3-.42-.7-.42-1.12 0-.34.1-.76.42-1.03.6-.55 1.5-.55 2.1 0 5.8 5.8 19.07 5.8 24.95 0 .6-.55 1.5-.55 2.1 0 .25.27.42.7.42 1.03 0 .42-.17.83-.42 1.1-2.77 2.7-4.37 7.32-4.37 12.36 0 5.03 1.6 9.66 4.37 12.35.25.26.42.68.42 1.1 0 .34-.17.75-.42 1.03-.34.27-.67.4-1.1.4-.33 0-.75-.13-1-.4-5.88-5.8-19.15-5.8-24.95 0-.58.55-1.5.55-2.1 0zm53.5-14.5c0-1.38-.5-2.7-1.5-3.66-1.02-1.04-2.36-1.52-3.7-1.52-1.35 0-2.7.48-3.7 1.52-2.02 2-2.02 5.3 0 7.3 2 2.08 5.37 2.08 7.4 0 1-.95 1.5-2.26 1.5-3.64zm.6 5.8c-1.6 1.58-3.7 2.4-5.8 2.4-2.1 0-4.2-.82-5.8-2.4-3.28-3.18-3.28-8.43 0-11.6 3.2-3.17 8.4-3.17 11.6 0 3.27 3.17 3.27 8.42 0 11.6zm-68.14-5.73c0-1.44-.5-2.7-1.5-3.72-1-.97-2.27-1.52-3.7-1.52-1.43 0-2.7.55-3.7 1.52-1 1.03-1.5 2.28-1.5 3.73 0 1.4.5 2.7 1.5 3.66 2.02 1.93 5.46 1.93 7.4 0 1-.96 1.5-2.27 1.5-3.65zm.6 5.73c-1.6 1.66-3.7 2.42-5.8 2.42-2.1 0-4.2-.76-5.8-2.42-3.27-3.17-3.27-8.35 0-11.52 3.2-3.23 8.4-3.23 11.6 0 3.27 3.18 3.27 8.36 0 11.53zm50.3 16.5c-5.95 5.93-13.93 9.24-22.42 9.24-8.48 0-16.46-3.3-22.43-9.25-4.12-4.07-6.4-8.97-7.57-12.35l-2.85.97c1.26 3.72 3.78 9.04 8.3 13.52 6.56 6.5 15.22 10.08 24.54 10.08 9.24 0 17.98-3.6 24.53-10.08 3.78-3.8 6.8-8.55 8.48-13.52l-2.77-.97c-1.6 4.56-4.37 8.9-7.8 12.35zm-52.4-32.23l-2.86-.97c1.85-5.24 4.78-10 8.3-13.52 6.56-6.48 15.22-10.06 24.54-10.06 9.24 0 17.98 3.6 24.53 10.07 3.7 3.74 6.8 8.64 8.48 13.53l-2.77.97c-1.6-4.48-4.45-8.97-7.8-12.35-5.98-5.93-13.95-9.25-22.44-9.25-8.48 0-16.46 3.32-22.43 9.25-3.2 3.17-5.9 7.6-7.57 12.35z" stroke="#000" stroke-opacity="0" fill="#fff"/><use xlink:href="#n" transform="matrix(1,0,0,1,9197.405370548217,-1363.6033646272308) translate(36.6579861111111 18.489583333333332)"/><path d="M9481.83-1378c-30.12 0-54.6-24.48-54.6-54.6s24.48-54.6 54.6-54.6 54.6 24.48 54.6 54.6-24.48 54.6-54.6 54.6zm0-114.6c-33.12 0-60 26.88-60 60 0 33.12 26.88 60 60 60 33.12 0 60-26.88 60-60 0-33.12-26.88-60-60-60zm-18.48 90.72h-14.64l17.4-36.24 7.33 15-10.08 21.24zm5.16-43.8c-.47-.96-1.43-1.56-2.5-1.56-.97 0-1.93.6-2.4 1.56l-21.6 45.36c-.37.84-.37 1.8.1 2.64.5.72 1.45 1.2 2.3 1.2h20.75c.96 0 1.92-.6 2.4-1.56l11.28-23.88c.36-.72.36-1.56 0-2.4l-10.32-21.36zm46.45 43.8h-14.88l-27.12-58.08c-.36-.96-1.32-1.56-2.4-1.56h-9.84v-11.28h19.7l26.87 58.08c.48.96 1.44 1.56 2.52 1.56h5.15v11.28zm2.64-16.8h-6.13l-26.88-57.96c-.5-1.08-1.45-1.68-2.4-1.68h-24.25c-1.44 0-2.64 1.2-2.64 2.76l-.1 16.68c0 .72.35 1.44.83 1.92.48.6 1.2.84 1.92.84h10.8l27.12 58.08c.36.96 1.32 1.56 2.4 1.56h19.32c1.55 0 2.75-1.2 2.75-2.76v-16.68c0-1.44-1.2-2.76-2.76-2.76z" stroke="#000" stroke-opacity="0" fill="#ed7100"/><use xlink:href="#o" transform="matrix(1,0,0,1,9391.83135061179,-1363.6033646272308) translate(49.99348958333333 18.489583333333332)"/><path d="M9285.9-1510.08a1.5 1.5 0 0 1 1.5-1.5 1.5 1.5 0 0 1 1.5 1.5 1.5 1.5 0 0 1-1.5 1.5 1.5 1.5 0 0 1-1.5-1.5v-.03m0-5.48v-.02a1.5 1.5 0 0 1 1.5-1.5 1.5 1.5 0 0 1 1.5 1.5 1.5 1.5 0 0 1-1.5 1.5 1.5 1.5 0 0 1-1.5-1.5m0-5.5a1.5 1.5 0 0 1 1.5-1.5 1.5 1.5 0 0 1 1.5 1.5 1.5 1.5 0 0 1-1.5 1.5 1.5 1.5 0 0 1-1.5-1.5v-.02m0-5.47a1.5 1.5 0 0 1 1.5-1.5 1.5 1.5 0 0 1 1.5 1.5 1.5 1.5 0 0 1-1.5 1.5 1.5 1.5 0 0 1-1.5-1.5v-.02m-1.75-4.2v-.03a1.5 1.5 0 0 1 1.5-1.5 1.5 1.5 0 0 1 1.5 1.5 1.5 1.5 0 0 1-1.5 1.5 1.5 1.5 0 0 1-1.5-1.5m-4.24-1.74a1.5 1.5 0 0 1 1.5-1.5 1.5 1.5 0 0 1 1.5 1.5 1.5 1.5 0 0 1-1.5 1.5 1.5 1.5 0 0 1-1.5-1.5v-.02m-6 .03a1.5 1.5 0 0 1 1.5-1.5 1.5 1.5 0 0 1 1.5 1.5 1.5 1.5 0 0 1-1.5 1.5 1.5 1.5 0 0 1-1.5-1.5v-.02m-6.02.03a1.5 1.5 0 0 1 1.5-1.5 1.5 1.5 0 0 1 1.5 1.5 1.5 1.5 0 0 1-1.5 1.5 1.5 1.5 0 0 1-1.5-1.5v-.02m-6.02.03a1.5 1.5 0 0 1 1.5-1.5 1.5 1.5 0 0 1 1.5 1.5 1.5 1.5 0 0 1-1.5 1.5 1.5 1.5 0 0 1-1.5-1.5v-.02m-6.02.03a1.5 1.5 0 0 1 1.5-1.5 1.5 1.5 0 0 1 1.5 1.5 1.5 1.5 0 0 1-1.5 1.5 1.5 1.5 0 0 1-1.5-1.5v-.02m-6 .03a1.5 1.5 0 0 1 1.5-1.5 1.5 1.5 0 0 1 1.5 1.5 1.5 1.5 0 0 1-1.5 1.5 1.5 1.5 0 0 1-1.5-1.5v-.02m-6.03.03a1.5 1.5 0 0 1 1.5-1.5 1.5 1.5 0 0 1 1.5 1.5 1.5 1.5 0 0 1-1.5 1.5 1.5 1.5 0 0 1-1.5-1.5v-.02m-6 .03a1.5 1.5 0 0 1 1.5-1.5 1.5 1.5 0 0 1 1.5 1.5 1.5 1.5 0 0 1-1.5 1.5 1.5 1.5 0 0 1-1.5-1.5v-.02m-6.02.03a1.5 1.5 0 0 1 1.5-1.5 1.5 1.5 0 0 1 1.5 1.5 1.5 1.5 0 0 1-1.5 1.5 1.5 1.5 0 0 1-1.5-1.5v-.02m-6 .03a1.5 1.5 0 0 1 1.5-1.5 1.5 1.5 0 0 1 1.5 1.5 1.5 1.5 0 0 1-1.5 1.5 1.5 1.5 0 0 1-1.5-1.5v-.02m-6.03.03a1.5 1.5 0 0 1 1.5-1.5 1.5 1.5 0 0 1 1.5 1.5 1.5 1.5 0 0 1-1.5 1.5 1.5 1.5 0 0 1-1.5-1.5v-.02m-6 .03a1.5 1.5 0 0 1 1.5-1.5 1.5 1.5 0 0 1 1.5 1.5 1.5 1.5 0 0 1-1.5 1.5 1.5 1.5 0 0 1-1.5-1.5v-.02m-6.03.03a1.5 1.5 0 0 1 1.5-1.5 1.5 1.5 0 0 1 1.5 1.5 1.5 1.5 0 0 1-1.5 1.5 1.5 1.5 0 0 1-1.5-1.5v-.02m-6 .03a1.5 1.5 0 0 1 1.5-1.5 1.5 1.5 0 0 1 1.5 1.5 1.5 1.5 0 0 1-1.5 1.5 1.5 1.5 0 0 1-1.5-1.5v-.02m-6.03.03a1.5 1.5 0 0 1 1.5-1.5 1.5 1.5 0 0 1 1.5 1.5 1.5 1.5 0 0 1-1.5 1.5 1.5 1.5 0 0 1-1.5-1.5v-.02m-6.02.03a1.5 1.5 0 0 1 1.5-1.5 1.5 1.5 0 0 1 1.5 1.5 1.5 1.5 0 0 1-1.5 1.5 1.5 1.5 0 0 1-1.5-1.5v-.02m-6.02.03a1.5 1.5 0 0 1 1.5-1.5 1.5 1.5 0 0 1 1.5 1.5 1.5 1.5 0 0 1-1.5 1.5 1.5 1.5 0 0 1-1.5-1.5v-.02m-6 .03a1.5 1.5 0 0 1 1.5-1.5 1.5 1.5 0 0 1 1.5 1.5 1.5 1.5 0 0 1-1.5 1.5 1.5 1.5 0 0 1-1.5-1.5v-.02m-6.03.03a1.5 1.5 0 0 1 1.5-1.5 1.5 1.5 0 0 1 1.5 1.5 1.5 1.5 0 0 1-1.5 1.5 1.5 1.5 0 0 1-1.5-1.5v-.02m-6 .03a1.5 1.5 0 0 1 1.5-1.5 1.5 1.5 0 0 1 1.5 1.5 1.5 1.5 0 0 1-1.5 1.5 1.5 1.5 0 0 1-1.5-1.5v-.02m-6.03.03a1.5 1.5 0 0 1 1.5-1.5 1.5 1.5 0 0 1 1.5 1.5 1.5 1.5 0 0 1-1.5 1.5 1.5 1.5 0 0 1-1.5-1.5v-.02m-6 .03a1.5 1.5 0 0 1 1.5-1.5 1.5 1.5 0 0 1 1.5 1.5 1.5 1.5 0 0 1-1.5 1.5 1.5 1.5 0 0 1-1.5-1.5v-.02m-6.03.03a1.5 1.5 0 0 1 1.5-1.5 1.5 1.5 0 0 1 1.5 1.5 1.5 1.5 0 0 1-1.5 1.5 1.5 1.5 0 0 1-1.5-1.5v-.02m-6 .03a1.5 1.5 0 0 1 1.5-1.5 1.5 1.5 0 0 1 1.5 1.5 1.5 1.5 0 0 1-1.5 1.5 1.5 1.5 0 0 1-1.5-1.5v-.02m-6.03.03a1.5 1.5 0 0 1 1.5-1.5 1.5 1.5 0 0 1 1.5 1.5 1.5 1.5 0 0 1-1.5 1.5 1.5 1.5 0 0 1-1.5-1.5v-.02m-6.02.03a1.5 1.5 0 0 1 1.5-1.5 1.5 1.5 0 0 1 1.5 1.5 1.5 1.5 0 0 1-1.5 1.5 1.5 1.5 0 0 1-1.5-1.5v-.02m-6 .03a1.5 1.5 0 0 1 1.5-1.5 1.5 1.5 0 0 1 1.5 1.5 1.5 1.5 0 0 1-1.5 1.5 1.5 1.5 0 0 1-1.5-1.5v-.02m-6.02.03a1.5 1.5 0 0 1 1.5-1.5 1.5 1.5 0 0 1 1.5 1.5 1.5 1.5 0 0 1-1.5 1.5 1.5 1.5 0 0 1-1.5-1.5v-.02m-6.02.03a1.5 1.5 0 0 1 1.5-1.5 1.5 1.5 0 0 1 1.5 1.5 1.5 1.5 0 0 1-1.5 1.5 1.5 1.5 0 0 1-1.5-1.5v-.02m-4.24 1.8v-.03a1.5 1.5 0 0 1 1.5-1.5 1.5 1.5 0 0 1 1.5 1.5 1.5 1.5 0 0 1-1.5 1.5 1.5 1.5 0 0 1-1.5-1.5m-1.76 4.26a1.5 1.5 0 0 1 1.5-1.5 1.5 1.5 0 0 1 1.5 1.5 1.5 1.5 0 0 1-1.5 1.5 1.5 1.5 0 0 1-1.5-1.5v-.02m0 6.53a1.5 1.5 0 0 1 1.5-1.5 1.5 1.5 0 0 1 1.5 1.5 1.5 1.5 0 0 1-1.5 1.5 1.5 1.5 0 0 1-1.5-1.5v-.02m0 6.53a1.5 1.5 0 0 1 1.5-1.5 1.5 1.5 0 0 1 1.5 1.5 1.5 1.5 0 0 1-1.5 1.5 1.5 1.5 0 0 1-1.5-1.5v-.02m0 6.53a1.5 1.5 0 0 1 1.5-1.5 1.5 1.5 0 0 1 1.5 1.5 1.5 1.5 0 0 1-1.5 1.5 1.5 1.5 0 0 1-1.5-1.5v-.02m0 6.53a1.5 1.5 0 0 1 1.5-1.5 1.5 1.5 0 0 1 1.5 1.5 1.5 1.5 0 0 1-1.5 1.5 1.5 1.5 0 0 1-1.5-1.5v-.02" fill="#e81313"/><path d="M9287.4-1495.6l-7.5-13h15z" stroke="#e81313" stroke-width="3" fill="#e81313"/><path d="M9108.45-1492.6h-2.95v-1.54h2.95z" stroke="#e81313" stroke-width=".05" fill="#e81313"/><use xlink:href="#p" transform="matrix(1,0,0,1,9101.17675551643,-1555.3533646272308) translate(0 14.800347222222223)"/><use xlink:href="#q" transform="matrix(1,0,0,1,9101.17675551643,-1555.3533646272308) translate(117.35243055555554 14.800347222222223)"/><path d="M8710.64-1312.6h-61" stroke="#6f7681" stroke-width="3" fill="none"/><path d="M8725.13-1312.6l-13 7.5v-15z" stroke="#6f7681" stroke-width="3" fill="#6f7681"/><path d="M8649.67-1311.13h-1.54v-2.95h1.54z" stroke="#6f7681" stroke-width=".05" fill="#6f7681"/><path d="M9420.33-1432.6h-55.43" stroke="#6f7681" stroke-width="3" fill="none"/><path d="M9421.83-1432.6l.06 1.47h-1.6v-2.95h1.58z" stroke="#6f7681" stroke-width=".05" fill="#6f7681"/><path d="M9350.4-1432.6l13-7.5v15z" stroke="#6f7681" stroke-width="3" fill="#6f7681"/><path d="M9365.83-1619.3a6 6 0 0 1 6-6h212a6 6 0 0 1 6 6v88a6 6 0 0 1-6 6h-212a6 6 0 0 1-6-6z" fill="#edf5ff"/><path d="M9364.83-1619.3a1 1 0 0 1 1-1 1 1 0 0 1 1 1 1 1 0 0 1-1 1 1 1 0 0 1-1-1v-.02m6-5.98a1 1 0 0 1 1-1 1 1 0 0 1 1 1 1 1 0 0 1-1 1 1 1 0 0 1-1-1v-.02m7.85.02a1 1 0 0 1 1-1 1 1 0 0 1 1 1 1 1 0 0 1-1 1 1 1 0 0 1-1-1v-.02m7.85.02a1 1 0 0 1 1-1 1 1 0 0 1 1 1 1 1 0 0 1-1 1 1 1 0 0 1-1-1v-.02m7.86.02a1 1 0 0 1 1-1 1 1 0 0 1 1 1 1 1 0 0 1-1 1 1 1 0 0 1-1-1v-.02m7.84.02a1 1 0 0 1 1-1 1 1 0 0 1 1 1 1 1 0 0 1-1 1 1 1 0 0 1-1-1v-.02m7.85.02a1 1 0 0 1 1-1 1 1 0 0 1 1 1 1 1 0 0 1-1 1 1 1 0 0 1-1-1v-.02m7.84.02a1 1 0 0 1 1-1 1 1 0 0 1 1 1 1 1 0 0 1-1 1 1 1 0 0 1-1-1v-.02m7.85.02a1 1 0 0 1 1-1 1 1 0 0 1 1 1 1 1 0 0 1-1 1 1 1 0 0 1-1-1v-.02m7.85.02a1 1 0 0 1 1-1 1 1 0 0 1 1 1 1 1 0 0 1-1 1 1 1 0 0 1-1-1v-.02m7.85.02a1 1 0 0 1 1-1 1 1 0 0 1 1 1 1 1 0 0 1-1 1 1 1 0 0 1-1-1v-.02m7.85.02a1 1 0 0 1 1-1 1 1 0 0 1 1 1 1 1 0 0 1-1 1 1 1 0 0 1-1-1v-.02m7.85.02a1 1 0 0 1 1-1 1 1 0 0 1 1 1 1 1 0 0 1-1 1 1 1 0 0 1-1-1v-.02m7.85.02a1 1 0 0 1 1-1 1 1 0 0 1 1 1 1 1 0 0 1-1 1 1 1 0 0 1-1-1v-.02m7.86.02a1 1 0 0 1 1-1 1 1 0 0 1 1 1 1 1 0 0 1-1 1 1 1 0 0 1-1-1v-.02m7.86.02a1 1 0 0 1 1-1 1 1 0 0 1 1 1 1 1 0 0 1-1 1 1 1 0 0 1-1-1v-.02m7.85.02a1 1 0 0 1 1-1 1 1 0 0 1 1 1 1 1 0 0 1-1 1 1 1 0 0 1-1-1v-.02m7.86.02a1 1 0 0 1 1-1 1 1 0 0 1 1 1 1 1 0 0 1-1 1 1 1 0 0 1-1-1v-.02m7.85.02a1 1 0 0 1 1-1 1 1 0 0 1 1 1 1 1 0 0 1-1 1 1 1 0 0 1-1-1v-.02m7.87.02a1 1 0 0 1 1-1 1 1 0 0 1 1 1 1 1 0 0 1-1 1 1 1 0 0 1-1-1v-.02m7.85.02a1 1 0 0 1 1-1 1 1 0 0 1 1 1 1 1 0 0 1-1 1 1 1 0 0 1-1-1v-.02m7.85.02a1 1 0 0 1 1-1 1 1 0 0 1 1 1 1 1 0 0 1-1 1 1 1 0 0 1-1-1v-.02m7.85.02a1 1 0 0 1 1-1 1 1 0 0 1 1 1 1 1 0 0 1-1 1 1 1 0 0 1-1-1v-.02m7.85.02a1 1 0 0 1 1-1 1 1 0 0 1 1 1 1 1 0 0 1-1 1 1 1 0 0 1-1-1v-.02m7.85.02a1 1 0 0 1 1-1 1 1 0 0 1 1 1 1 1 0 0 1-1 1 1 1 0 0 1-1-1v-.02m7.86.02a1 1 0 0 1 1-1 1 1 0 0 1 1 1 1 1 0 0 1-1 1 1 1 0 0 1-1-1v-.02m7.85.02a1 1 0 0 1 1-1 1 1 0 0 1 1 1 1 1 0 0 1-1 1 1 1 0 0 1-1-1v-.02m7.85.02a1 1 0 0 1 1-1 1 1 0 0 1 1 1 1 1 0 0 1-1 1 1 1 0 0 1-1-1v-.02m7.85.02a1 1 0 0 1 1-1 1 1 0 0 1 1 1 1 1 0 0 1-1 1 1 1 0 0 1-1-1v-.02m6 6.02a1 1 0 0 1 1-1 1 1 0 0 1 1 1 1 1 0 0 1-1 1 1 1 0 0 1-1-1v-.02m0 8.02a1 1 0 0 1 1-1 1 1 0 0 1 1 1 1 1 0 0 1-1 1 1 1 0 0 1-1-1v-.02m0 8.02a1 1 0 0 1 1-1 1 1 0 0 1 1 1 1 1 0 0 1-1 1 1 1 0 0 1-1-1v-.02m0 8.02a1 1 0 0 1 1-1 1 1 0 0 1 1 1 1 1 0 0 1-1 1 1 1 0 0 1-1-1v-.02m0 8.02a1 1 0 0 1 1-1 1 1 0 0 1 1 1 1 1 0 0 1-1 1 1 1 0 0 1-1-1v-.02m0 8.02a1 1 0 0 1 1-1 1 1 0 0 1 1 1 1 1 0 0 1-1 1 1 1 0 0 1-1-1v-.02m0 8.02a1 1 0 0 1 1-1 1 1 0 0 1 1 1 1 1 0 0 1-1 1 1 1 0 0 1-1-1v-.02m0 8.02a1 1 0 0 1 1-1 1 1 0 0 1 1 1 1 1 0 0 1-1 1 1 1 0 0 1-1-1v-.02m0 8.02a1 1 0 0 1 1-1 1 1 0 0 1 1 1 1 1 0 0 1-1 1 1 1 0 0 1-1-1v-.02m0 8.02a1 1 0 0 1 1-1 1 1 0 0 1 1 1 1 1 0 0 1-1 1 1 1 0 0 1-1-1v-.02m0 8.02a1 1 0 0 1 1-1 1 1 0 0 1 1 1 1 1 0 0 1-1 1 1 1 0 0 1-1-1v-.02m0 8.02a1 1 0 0 1 1-1 1 1 0 0 1 1 1 1 1 0 0 1-1 1 1 1 0 0 1-1-1v-.02m-6 6.02a1 1 0 0 1 1-1 1 1 0 0 1 1 1 1 1 0 0 1-1 1 1 1 0 0 1-1-1v-.02m-7.85.02a1 1 0 0 1 1-1 1 1 0 0 1 1 1 1 1 0 0 1-1 1 1 1 0 0 1-1-1v-.02m-7.85.02a1 1 0 0 1 1-1 1 1 0 0 1 1 1 1 1 0 0 1-1 1 1 1 0 0 1-1-1v-.02m-7.85.02a1 1 0 0 1 1-1 1 1 0 0 1 1 1 1 1 0 0 1-1 1 1 1 0 0 1-1-1v-.02m-7.86.02a1 1 0 0 1 1-1 1 1 0 0 1 1 1 1 1 0 0 1-1 1 1 1 0 0 1-1-1v-.02m-7.85.02a1 1 0 0 1 1-1 1 1 0 0 1 1 1 1 1 0 0 1-1 1 1 1 0 0 1-1-1v-.02m-7.85.02a1 1 0 0 1 1-1 1 1 0 0 1 1 1 1 1 0 0 1-1 1 1 1 0 0 1-1-1v-.02m-7.85.02a1 1 0 0 1 1-1 1 1 0 0 1 1 1 1 1 0 0 1-1 1 1 1 0 0 1-1-1v-.02m-7.85.02a1 1 0 0 1 1-1 1 1 0 0 1 1 1 1 1 0 0 1-1 1 1 1 0 0 1-1-1v-.02m-7.85.02a1 1 0 0 1 1-1 1 1 0 0 1 1 1 1 1 0 0 1-1 1 1 1 0 0 1-1-1v-.02m-7.86.02a1 1 0 0 1 1-1 1 1 0 0 1 1 1 1 1 0 0 1-1 1 1 1 0 0 1-1-1v-.02m-7.84.02a1 1 0 0 1 1-1 1 1 0 0 1 1 1 1 1 0 0 1-1 1 1 1 0 0 1-1-1v-.02m-7.85.02a1 1 0 0 1 1-1 1 1 0 0 1 1 1 1 1 0 0 1-1 1 1 1 0 0 1-1-1v-.02m-7.84.02a1 1 0 0 1 1-1 1 1 0 0 1 1 1 1 1 0 0 1-1 1 1 1 0 0 1-1-1v-.02m-7.85.02a1 1 0 0 1 1-1 1 1 0 0 1 1 1 1 1 0 0 1-1 1 1 1 0 0 1-1-1v-.02m-7.85.02a1 1 0 0 1 1-1 1 1 0 0 1 1 1 1 1 0 0 1-1 1 1 1 0 0 1-1-1v-.02m-7.85.02a1 1 0 0 1 1-1 1 1 0 0 1 1 1 1 1 0 0 1-1 1 1 1 0 0 1-1-1v-.02m-7.85.02a1 1 0 0 1 1-1 1 1 0 0 1 1 1 1 1 0 0 1-1 1 1 1 0 0 1-1-1v-.02m-7.85.02a1 1 0 0 1 1-1 1 1 0 0 1 1 1 1 1 0 0 1-1 1 1 1 0 0 1-1-1v-.02m-7.85.02a1 1 0 0 1 1-1 1 1 0 0 1 1 1 1 1 0 0 1-1 1 1 1 0 0 1-1-1v-.02m-7.86.02a1 1 0 0 1 1-1 1 1 0 0 1 1 1 1 1 0 0 1-1 1 1 1 0 0 1-1-1v-.02m-7.86.02a1 1 0 0 1 1-1 1 1 0 0 1 1 1 1 1 0 0 1-1 1 1 1 0 0 1-1-1v-.02m-7.85.02a1 1 0 0 1 1-1 1 1 0 0 1 1 1 1 1 0 0 1-1 1 1 1 0 0 1-1-1v-.02m-7.86.02a1 1 0 0 1 1-1 1 1 0 0 1 1 1 1 1 0 0 1-1 1 1 1 0 0 1-1-1v-.02m-7.85.02a1 1 0 0 1 1-1 1 1 0 0 1 1 1 1 1 0 0 1-1 1 1 1 0 0 1-1-1v-.02m-7.86.02a1 1 0 0 1 1-1 1 1 0 0 1 1 1 1 1 0 0 1-1 1 1 1 0 0 1-1-1v-.02m-7.86.02a1 1 0 0 1 1-1 1 1 0 0 1 1 1 1 1 0 0 1-1 1 1 1 0 0 1-1-1v-.02m-7.85.02a1 1 0 0 1 1-1 1 1 0 0 1 1 1 1 1 0 0 1-1 1 1 1 0 0 1-1-1v-.02m-6-5.98a1 1 0 0 1 1-1 1 1 0 0 1 1 1 1 1 0 0 1-1 1 1 1 0 0 1-1-1v-.02m0-7.98a1 1 0 0 1 1-1 1 1 0 0 1 1 1 1 1 0 0 1-1 1 1 1 0 0 1-1-1v-.02m0-7.98a1 1 0 0 1 1-1 1 1 0 0 1 1 1 1 1 0 0 1-1 1 1 1 0 0 1-1-1v-.02m0-7.98a1 1 0 0 1 1-1 1 1 0 0 1 1 1 1 1 0 0 1-1 1 1 1 0 0 1-1-1v-.02m0-7.98a1 1 0 0 1 1-1 1 1 0 0 1 1 1 1 1 0 0 1-1 1 1 1 0 0 1-1-1v-.02m0-7.98a1 1 0 0 1 1-1 1 1 0 0 1 1 1 1 1 0 0 1-1 1 1 1 0 0 1-1-1v-.02m0-7.98a1 1 0 0 1 1-1 1 1 0 0 1 1 1 1 1 0 0 1-1 1 1 1 0 0 1-1-1v-.02m0-7.98a1 1 0 0 1 1-1 1 1 0 0 1 1 1 1 1 0 0 1-1 1 1 1 0 0 1-1-1v-.02m0-7.98a1 1 0 0 1 1-1 1 1 0 0 1 1 1 1 1 0 0 1-1 1 1 1 0 0 1-1-1v-.02m0-7.98a1 1 0 0 1 1-1 1 1 0 0 1 1 1 1 1 0 0 1-1 1 1 1 0 0 1-1-1v-.02m0-7.98a1 1 0 0 1 1-1 1 1 0 0 1 1 1 1 1 0 0 1-1 1 1 1 0 0 1-1-1v-.02" fill="#6db1ff"/><g><use xlink:href="#r" transform="matrix(1,0,0,1,9370.83135061179,-1620.3131175372646) translate(16.318576388888886 28.854166666666668)"/><use xlink:href="#s" transform="matrix(1,0,0,1,9370.83135061179,-1620.3131175372646) translate(112.33420138888889 28.854166666666668)"/><use xlink:href="#t" transform="matrix(1,0,0,1,9370.83135061179,-1620.3131175372646) translate(37.65538194444443 51.34375)"/><use xlink:href="#u" transform="matrix(1,0,0,1,9370.83135061179,-1620.3131175372646) translate(80.32899305555554 51.34375)"/><use xlink:href="#v" transform="matrix(1,0,0,1,9370.83135061179,-1620.3131175372646) translate(112.33420138888889 51.34375)"/><use xlink:href="#w" transform="matrix(1,0,0,1,9370.83135061179,-1620.3131175372646) translate(69.66059027777777 73.83333333333334)"/></g><path d="M9476.33-1522.8a1.5 1.5 0 0 1 1.5-1.5 1.5 1.5 0 0 1 1.5 1.5 1.5 1.5 0 0 1-1.5 1.5 1.5 1.5 0 0 1-1.5-1.5v-.03m0 14.4v-.03a1.5 1.5 0 0 1 1.5-1.5 1.5 1.5 0 0 1 1.5 1.5 1.5 1.5 0 0 1-1.5 1.5 1.5 1.5 0 0 1-1.5-1.5" fill="#6db1ff"/><path d="M9479.3-1522.78h-2.94v-1.53h2.95zM9479.3-1492.5l-2.52.1-.42.06v-1.8h2.95z" stroke="#6db1ff" stroke-width=".05" fill="#6db1ff"/><path d="M8269.25-1285.22h44.86v-6.07h-44.85v6.08zm0-18.35h55.43v-6.07h-55.43v6.07zm0-18.35H8293v-6.07h-23.75v6.1zm-36.6 54.26h2.3v6.07h-5.24c-1.73 0-3.03-1.3-3.03-3.03v-104.94c0-1.7 1.3-3.03 3.05-3.03h50.1v5.94h-47.16v99zm15.9 10.56h4.9v5.94h-7.94c-1.63 0-3.04-1.32-3.04-2.9v-105.08c0-1.58 1.4-2.9 3.05-2.9h47.5v5.94h-44.44v99zm15.8 10.56v-99h38.76v23.23c0 1.57 1.43 2.9 3.06 2.9h23.42v72.86h-65.24zm44.86-94.78l16.02 15.97h-16v-15.97zm25.5 16.9l-26.36-26.27c-.65-.65-1.42-.9-2.18-.9l-44.86-.02c-1.64 0-2.94 1.32-2.94 3.04v104.94c0 1.72 1.3 3.04 2.94 3.04h71.22c1.74 0 3.05-1.32 3.05-3.04v-78.67c0-.8-.33-1.6-.88-2.12z" stroke="#000" stroke-opacity="0" fill="#e7157b"/><path d="M8356.6-1306.03a6 6 0 0 1 6-6h114.6a6 6 0 0 0 6-6v-1.28a2.3 2.3 0 0 1 4-1.55l15.9 17.64a6.67 6.67 0 0 1 0 8.9l-15.9 17.65a2.3 2.3 0 0 1-4-1.54v-1.27a6 6 0 0 0-6-6h-114.6a6 6 0 0 1-6-6z" stroke="#6f7681" stroke-width="2" fill="#fff"/><defs><path fill="#232f3e" d="M137 0v-1349h968v228H432v324h612v228H432v341h714V0H137" id="x"/><path fill="#232f3e" d="M774 0H438L31-1082h297c94 290 200 568 280 872 83-304 194-581 291-872h294" id="y"/><path fill="#232f3e" d="M1113-274C1038-96 884 20 626 20c-352 0-526-209-526-566 0-358 185-556 530-556 358 0 496 251 499 615H395c5 180 68 319 245 319 102 0 186-45 208-129zM857-663c-6-177-128-307-315-247-94 30-141 121-145 247h460" id="z"/><path fill="#232f3e" d="M768-1103c247 0 336 167 336 416V0H824v-619c-3-164-24-273-171-273-164 0-229 142-229 312V0H143c-4-359 9-736-8-1082h268c7 63 12 146 13 215h4c67-145 160-236 348-236" id="A"/><path fill="#232f3e" d="M711 13c-250 0-386-99-385-349l2-556H161v-190h181l88-282h176v282h385v190H606v530c-10 130 45 186 174 184 91-2 176-11 255-27v186C933-1 833 13 711 13" id="B"/><g id="a"><use transform="matrix(0.010850694444444444,0,0,0.010850694444444444,0,0)" xlink:href="#x"/><use transform="matrix(0.010850694444444444,0,0,0.010850694444444444,13.335503472222221,0)" xlink:href="#y"/><use transform="matrix(0.010850694444444444,0,0,0.010850694444444444,26.671006944444443,0)" xlink:href="#z"/><use transform="matrix(0.010850694444444444,0,0,0.010850694444444444,40.006510416666664,0)" xlink:href="#A"/><use transform="matrix(0.010850694444444444,0,0,0.010850694444444444,53.342013888888886,0)" xlink:href="#B"/></g><path fill="#232f3e" d="M496-1349c439 0 656 222 653 664C1146-265 969 0 556 0H135v-1349h361zm36 1121c245-7 319-187 320-457 1-273-91-439-361-436h-61v893h102" id="C"/><path fill="#232f3e" d="M875-1102c70 0 148 7 206 17v237c-110-17-267-37-359 15-123 69-192 207-192 395V0H250c-10-367 32-789-52-1082h271c19 69 36 149 46 228h4c52-151 151-250 356-248" id="D"/><path fill="#232f3e" d="M794-190h353V0H118v-190h395v-702H223v-190h571v892zM513-1277v-207h281v207H513" id="E"/><g id="b"><use transform="matrix(0.010850694444444444,0,0,0.010850694444444444,0,0)" xlink:href="#C"/><use transform="matrix(0.010850694444444444,0,0,0.010850694444444444,13.335503472222221,0)" xlink:href="#D"/><use transform="matrix(0.010850694444444444,0,0,0.010850694444444444,26.671006944444443,0)" xlink:href="#E"/><use transform="matrix(0.010850694444444444,0,0,0.010850694444444444,40.006510416666664,0)" xlink:href="#y"/><use transform="matrix(0.010850694444444444,0,0,0.010850694444444444,53.342013888888886,0)" xlink:href="#z"/><use transform="matrix(0.010850694444444444,0,0,0.010850694444444444,66.67751736111111,0)" xlink:href="#A"/></g><path fill="#232f3e" d="M616-1349c316 3 526 118 526 426 0 301-201 442-514 447H431V0H136v-1349h480zm-25 646c164 1 254-62 254-215 0-157-99-200-262-202H431v417h160" id="F"/><path fill="#232f3e" d="M427-171c3 195 2 397 2 596H148V-846c1-83-4-168-8-236h272c10 49 14 118 15 176h4c59-114 151-197 316-197 291 0 385 259 385 560 0 243-65 433-220 521-50 28-109 42-176 42-162-2-253-78-309-191zm69-661c-91 113-92 463-1 586 46 62 145 101 225 54 96-57 118-191 119-351 0-123-18-215-53-276-46-82-128-115-220-74-25 12-48 33-70 61" id="G"/><path fill="#232f3e" d="M794-190h353V0H118v-190h395v-1104H223v-190h571v1294" id="H"/><g id="c"><use transform="matrix(0.010850694444444444,0,0,0.010850694444444444,0,0)" xlink:href="#F"/><use transform="matrix(0.010850694444444444,0,0,0.010850694444444444,13.335503472222221,0)" xlink:href="#E"/><use transform="matrix(0.010850694444444444,0,0,0.010850694444444444,26.671006944444443,0)" xlink:href="#G"/><use transform="matrix(0.010850694444444444,0,0,0.010850694444444444,40.006510416666664,0)" xlink:href="#z"/><use transform="matrix(0.010850694444444444,0,0,0.010850694444444444,53.342013888888886,0)" xlink:href="#H"/><use transform="matrix(0.010850694444444444,0,0,0.010850694444444444,66.67751736111111,0)" xlink:href="#E"/><use transform="matrix(0.010850694444444444,0,0,0.010850694444444444,80.01302083333334,0)" xlink:href="#A"/><use transform="matrix(0.010850694444444444,0,0,0.010850694444444444,93.34852430555557,0)" xlink:href="#z"/></g><path d="M614-1226c-167 1-283 53-283 213 0 183 186 193 334 234 230 63 463 120 463 409 0 286-219 387-518 390C309 23 131-98 79-338l185-37c34 165 149 248 351 246 184-2 324-58 324-238 0-203-207-221-372-266-210-57-422-111-422-377 0-267 201-356 470-360 279-5 430 101 480 324l-188 33c-28-141-121-215-293-213" id="I"/><path d="M1060-1016c0 191-128 285-295 323v4c154 18 262 91 313 209 14 35 21 72 21 110 0 277-194 390-478 390-292 0-457-129-493-382l186-17c24 161 121 250 307 250 172 1 298-80 291-247-8-208-220-239-446-233v-156c217 9 409-34 409-232 0-152-102-225-264-225-159 0-264 88-278 233l-181-14c33-239 196-367 461-367 264 0 447 102 447 354" id="J"/><g id="d"><use transform="matrix(0.010850694444444444,0,0,0.010850694444444444,0,0)" xlink:href="#I"/><use transform="matrix(0.010850694444444444,0,0,0.010850694444444444,13.335503472222221,0)" xlink:href="#J"/></g><path d="M162 0v-1349h919v156H353v422h668v154H353v461h769V0H162" id="K"/><path d="M715 0H502L69-1082h202c94 253 197 500 285 758 19 57 36 126 52 183 96-335 234-626 350-941h201" id="L"/><path d="M617-1102c355 0 481 238 477 599H322c5 222 84 388 301 388 144 0 244-59 284-166l158 45C1002-72 854 20 623 20c-342 0-490-220-490-568 0-346 151-554 484-554zm291 461c-18-192-90-328-289-328-194 0-287 128-295 328h584" id="M"/><path d="M706-1102c241 0 344 136 343 381V0H868v-695c1-168-57-273-220-268-190 6-283 138-283 336V0H185c-3-360 6-732-6-1082h170c4 54 7 126 8 185h3c63-121 164-204 346-205" id="N"/><path d="M682 16c-209 0-323-80-324-285v-671H190v-142h170l58-282h120v282h432v142H538v652c2 114 60 155 182 155 106 0 209-16 297-34v137C921-4 806 16 682 16" id="O"/><path d="M802-711c201 25 350 118 350 331C1152-95 921 0 634 0H162v-1349c401 9 908-74 908 327 0 184-111 275-268 311zm-224-69c174-2 300-51 300-218 0-163-124-198-302-198H353v416h225zM353-153c281-2 612 44 606-244-5-271-329-233-606-234v478" id="P"/><path d="M839-1102c70 0 148 7 206 17v167c-112-18-268-36-363 15-129 69-208 203-208 395V0H294c-10-367 32-789-52-1082h171c21 75 41 161 48 250h5c67-152 152-270 373-270" id="Q"/><path d="M745-142h380V0H143v-142h422v-798H246v-142h499v940zM545-1292v-192h200v192H545" id="R"/><path d="M865-914c-3-187-2-380-2-570h180v1261c0 76 1 155 6 223H877c-8-49-9-116-10-174h-5C801-44 708 26 530 26c-135 0-234-46-297-139s-95-232-95-419c0-377 131-566 392-566 176 0 271 63 335 184zm-286-51c-222 0-255 197-255 427 0 229 31 425 253 425 237 0 286-195 286-441 0-238-52-411-284-411" id="S"/><path d="M1048-32c-2 300-135 456-433 456-222-1-358-88-400-267l184-25c22 99 100 157 222 156 184-2 248-125 248-315 0-64 3-133-2-194C807-100 706-13 524-12c-306 0-381-228-381-537 0-318 85-550 400-550 164 0 271 83 325 202h3c1-60 3-134 12-185h171c-13 339-4 702-6 1050zM585-145c210-8 284-178 284-406 0-192-52-331-177-392-33-16-69-22-104-22-223 2-259 184-259 414 0 229 31 415 256 406" id="T"/><g id="f"><use transform="matrix(0.010850694444444444,0,0,0.010850694444444444,0,0)" xlink:href="#K"/><use transform="matrix(0.010850694444444444,0,0,0.010850694444444444,13.335503472222221,0)" xlink:href="#L"/><use transform="matrix(0.010850694444444444,0,0,0.010850694444444444,26.671006944444443,0)" xlink:href="#M"/><use transform="matrix(0.010850694444444444,0,0,0.010850694444444444,40.006510416666664,0)" xlink:href="#N"/><use transform="matrix(0.010850694444444444,0,0,0.010850694444444444,53.342013888888886,0)" xlink:href="#O"/><use transform="matrix(0.010850694444444444,0,0,0.010850694444444444,66.67751736111111,0)" xlink:href="#P"/><use transform="matrix(0.010850694444444444,0,0,0.010850694444444444,80.01302083333334,0)" xlink:href="#Q"/><use transform="matrix(0.010850694444444444,0,0,0.010850694444444444,93.34852430555557,0)" xlink:href="#R"/><use transform="matrix(0.010850694444444444,0,0,0.010850694444444444,106.6840277777778,0)" xlink:href="#S"/><use transform="matrix(0.010850694444444444,0,0,0.010850694444444444,120.01953125000003,0)" xlink:href="#T"/><use transform="matrix(0.010850694444444444,0,0,0.010850694444444444,133.35503472222226,0)" xlink:href="#M"/></g><path d="M650-1214c-281 0-336 244-336 533 0 295 60 546 347 546 188 0 263-142 322-282l159 65C1058-155 935 20 659 20c-401 0-546-295-546-701 0-407 135-689 536-689 264 0 391 146 466 335l-168 65c-47-129-127-244-297-244" id="U"/><g id="g"><use transform="matrix(0.010850694444444444,0,0,0.010850694444444444,0,0)" xlink:href="#K"/><use transform="matrix(0.010850694444444444,0,0,0.010850694444444444,13.335503472222221,0)" xlink:href="#U"/><use transform="matrix(0.010850694444444444,0,0,0.010850694444444444,26.671006944444443,0)" xlink:href="#I"/></g><path d="M709-1193V0H519v-1193H76v-156h1076v156H709" id="V"/><path d="M1000-272c3 95 12 159 101 161 21 0 41-3 59-7V-6c-44 10-86 16-139 16-141 2-191-84-197-217h-6C748-76 648 20 446 20c-207 0-318-120-318-322 0-266 194-348 454-354l236-4c12-191-40-305-222-305-140 0-220 47-232 172l-188-17c33-204 181-292 423-292 255 0 401 118 401 364v466zm-683-27c0 109 63 184 175 182 166-3 259-96 306-217 24-65 20-120 20-200-232 7-501-28-501 235" id="W"/><path d="M873-819c-18-114-119-146-250-146-163 0-245 50-245 151 0 151 170 148 294 185 182 54 388 94 388 320 0 240-189 325-439 329-245 4-410-69-454-268l159-31c24 133 136 168 295 165 144-2 270-31 270-171 0-164-195-160-331-202-167-52-350-87-350-299 0-218 173-315 413-313 220 2 373 77 412 260" id="X"/><path d="M914 0L548-499l-132 98V0H236v-1484h180v927l475-525h211L663-617 1125 0H914" id="Y"/><g id="h"><use transform="matrix(0.010850694444444444,0,0,0.010850694444444444,0,0)" xlink:href="#V"/><use transform="matrix(0.010850694444444444,0,0,0.010850694444444444,13.335503472222221,0)" xlink:href="#W"/><use transform="matrix(0.010850694444444444,0,0,0.010850694444444444,26.671006944444443,0)" xlink:href="#X"/><use transform="matrix(0.010850694444444444,0,0,0.010850694444444444,40.006510416666664,0)" xlink:href="#Y"/></g><path fill="#333" d="M473-1349c438-1 655 221 652 661C1122-268 945-8 532 0H162v-1349h311zm42 1193c308-4 416-205 418-532 2-330-131-509-459-505H353v1037h162" id="Z"/><path fill="#333" d="M615-1102c343 0 484 203 482 560-1 347-147 562-488 562-336 0-475-219-479-562-4-349 156-560 485-560zm-8 989c240 0 301-180 301-429 0-245-55-427-290-427-236 0-299 181-299 427 0 243 61 429 288 429" id="aa"/><path fill="#333" d="M631 20c-350 0-501-215-501-562 0-355 162-560 502-560 250 0 399 118 446 323l-192 14c-23-124-109-196-262-196-242 0-305 171-305 415 1 245 61 427 304 427 151 0 248-77 267-215l190 12C1039-107 883 20 631 20" id="ab"/><g id="j"><use transform="matrix(0.008680555555555556,0,0,0.008680555555555556,0,0)" xlink:href="#Z"/><use transform="matrix(0.008680555555555556,0,0,0.008680555555555556,10.668402777777779,0)" xlink:href="#aa"/><use transform="matrix(0.008680555555555556,0,0,0.008680555555555556,21.336805555555557,0)" xlink:href="#ab"/></g><path fill="#333" d="M617-1102c355 0 481 238 477 599H322c5 222 84 388 301 388 144 0 244-59 284-166l158 45C1002-72 854 20 623 20c-342 0-490-220-490-568 0-346 151-554 484-554zm291 461c-18-192-90-328-289-328-194 0-287 128-295 328h584" id="ac"/><path fill="#333" d="M736-142h380V0H134v-142h422v-1200H267v-142h469v1342" id="ad"/><path fill="#333" d="M682 16c-209 0-323-80-324-285v-671H190v-142h170l58-282h120v282h432v142H538v652c2 114 60 155 182 155 106 0 209-16 297-34v137C921-4 806 16 682 16" id="ae"/><path fill="#333" d="M865-914c-3-187-2-380-2-570h180v1261c0 76 1 155 6 223H877c-8-49-9-116-10-174h-5C801-44 708 26 530 26c-135 0-234-46-297-139s-95-232-95-419c0-377 131-566 392-566 176 0 271 63 335 184zm-286-51c-222 0-255 197-255 427 0 229 31 425 253 425 237 0 286-195 286-441 0-238-52-411-284-411" id="af"/><g id="k"><use transform="matrix(0.008680555555555556,0,0,0.008680555555555556,0,0)" xlink:href="#Z"/><use transform="matrix(0.008680555555555556,0,0,0.008680555555555556,10.668402777777779,0)" xlink:href="#ac"/><use transform="matrix(0.008680555555555556,0,0,0.008680555555555556,21.336805555555557,0)" xlink:href="#ad"/><use transform="matrix(0.008680555555555556,0,0,0.008680555555555556,32.005208333333336,0)" xlink:href="#ac"/><use transform="matrix(0.008680555555555556,0,0,0.008680555555555556,42.673611111111114,0)" xlink:href="#ae"/><use transform="matrix(0.008680555555555556,0,0,0.008680555555555556,53.34201388888889,0)" xlink:href="#ac"/><use transform="matrix(0.008680555555555556,0,0,0.008680555555555556,64.01041666666667,0)" xlink:href="#af"/></g><g id="l"><use transform="matrix(0.008680555555555556,0,0,0.008680555555555556,0,0)" xlink:href="#Z"/><use transform="matrix(0.008680555555555556,0,0,0.008680555555555556,10.668402777777779,0)" xlink:href="#aa"/><use transform="matrix(0.008680555555555556,0,0,0.008680555555555556,21.336805555555557,0)" xlink:href="#ab"/></g><path fill="#333" d="M1034 0L896-382H333L196 0H0l510-1349h217L1228 0h-194zM847-531c-77-225-157-447-231-674-69 231-154 451-232 674h463" id="ag"/><g id="m"><use transform="matrix(0.008680555555555556,0,0,0.008680555555555556,0,0)" xlink:href="#ag"/><use transform="matrix(0.008680555555555556,0,0,0.008680555555555556,10.668402777777779,0)" xlink:href="#af"/><use transform="matrix(0.008680555555555556,0,0,0.008680555555555556,21.336805555555557,0)" xlink:href="#af"/><use transform="matrix(0.008680555555555556,0,0,0.008680555555555556,32.005208333333336,0)" xlink:href="#ac"/><use transform="matrix(0.008680555555555556,0,0,0.008680555555555556,42.673611111111114,0)" xlink:href="#af"/></g><path d="M473-1349c438-1 655 221 652 661C1122-268 945-8 532 0H162v-1349h311zm42 1193c308-4 416-205 418-532 2-330-131-509-459-505H353v1037h162" id="ah"/><path d="M237 0v-1349h191v1193h672V0H237" id="ai"/><path d="M102-681c0-398 126-689 513-689 165 0 291 58 379 174s132 287 132 515c0 353-105 610-380 685 49 143 111 234 276 240 36 1 86-7 115-13v134c-94 24-238 34-327-3-143-59-210-191-259-346-336-41-449-320-449-697zm749 406c94-160 97-656-5-807-57-85-130-132-231-132-104 0-178 47-234 132-101 153-99 655 1 809 57 89 130 138 232 138 109 0 184-49 237-140" id="aj"/><path d="M891-1484c-201 251-362 514-362 954 0 441 161 704 362 955H701C500 176 342-90 342-532c0-440 159-704 359-952h190" id="ak"/><path d="M528-1484c201 248 357 511 357 952 0 442-156 709-357 957H336C537 174 700-89 700-530c0-440-163-703-364-954h192" id="al"/><g id="n"><use transform="matrix(0.010850694444444444,0,0,0.010850694444444444,0,0)" xlink:href="#ah"/><use transform="matrix(0.010850694444444444,0,0,0.010850694444444444,13.335503472222221,0)" xlink:href="#ai"/><use transform="matrix(0.010850694444444444,0,0,0.010850694444444444,26.671006944444443,0)" xlink:href="#aj"/><use transform="matrix(0.010850694444444444,0,0,0.010850694444444444,40.006510416666664,0)" xlink:href="#ak"/><use transform="matrix(0.010850694444444444,0,0,0.010850694444444444,53.342013888888886,0)" xlink:href="#I"/><use transform="matrix(0.010850694444444444,0,0,0.010850694444444444,66.67751736111111,0)" xlink:href="#aj"/><use transform="matrix(0.010850694444444444,0,0,0.010850694444444444,80.01302083333334,0)" xlink:href="#I"/><use transform="matrix(0.010850694444444444,0,0,0.010850694444444444,93.34852430555557,0)" xlink:href="#al"/></g><path d="M904-1102c199 0 220 177 220 381V0H956v-686c-3-114 0-215-60-264-70-33-125-4-158 71-26 56-39 140-39 252V0H531v-686c-3-114-1-215-61-264-78-41-136 24-157 84-24 69-39 159-39 259V0H105c-3-360 6-732-6-1082h149c6 50 3 123 8 175 36-100 83-195 216-195 135 0 166 79 196 196 42-105 93-196 236-196" id="am"/><path d="M365-904c58-129 161-200 334-200 130 0 228 46 293 138s98 233 98 420c0 189-34 331-102 425S824 20 698 20c-170 0-275-64-336-184 0 55-3 116-9 164H179c5-68 6-147 6-223v-1261h180c-2 193 4 394-4 580h4zm283 791c221 0 256-197 256-427 0-229-34-425-254-425-236 0-285 195-285 441 0 237 53 411 283 411" id="an"/><g id="o"><use transform="matrix(0.010850694444444444,0,0,0.010850694444444444,0,0)" xlink:href="#ai"/><use transform="matrix(0.010850694444444444,0,0,0.010850694444444444,13.335503472222221,0)" xlink:href="#W"/><use transform="matrix(0.010850694444444444,0,0,0.010850694444444444,26.671006944444443,0)" xlink:href="#am"/><use transform="matrix(0.010850694444444444,0,0,0.010850694444444444,40.006510416666664,0)" xlink:href="#an"/><use transform="matrix(0.010850694444444444,0,0,0.010850694444444444,53.342013888888886,0)" xlink:href="#S"/><use transform="matrix(0.010850694444444444,0,0,0.010850694444444444,66.67751736111111,0)" xlink:href="#W"/></g><path fill="#e81313" d="M616-1349c316 3 526 118 526 426 0 301-201 442-514 447H431V0H136v-1349h480zm-25 646c164 1 254-62 254-215 0-157-99-200-262-202H431v417h160" id="ao"/><path fill="#e81313" d="M875-1102c70 0 148 7 206 17v237c-110-17-267-37-359 15-123 69-192 207-192 395V0H250c-10-367 32-789-52-1082h271c19 69 36 149 46 228h4c52-151 151-250 356-248" id="ap"/><path fill="#e81313" d="M616-1102c361 0 521 202 521 560 0 354-171 562-527 562C259 20 92-192 92-542c0-351 169-560 524-560zm-9 930c200-2 236-165 236-370 0-199-27-367-223-367-195 0-233 146-233 367 0 129 18 223 55 282s92 88 165 88" id="aq"/><path fill="#e81313" d="M1109-360C1066-122 902 20 624 20c-347 0-514-209-514-555 0-353 168-567 518-567 270 0 425 136 473 361l-283 14c-16-106-75-183-196-182-75 0-130 31-165 93s-52 152-52 270c0 249 74 374 221 374 120 0 188-82 201-201" id="ar"/><path fill="#e81313" d="M1113-274C1038-96 884 20 626 20c-352 0-526-209-526-566 0-358 185-556 530-556 358 0 496 251 499 615H395c5 180 68 319 245 319 102 0 186-45 208-129zM857-663c-6-177-128-307-315-247-94 30-141 121-145 247h460" id="as"/><path fill="#e81313" d="M622-916c-112 2-200 14-200 111 0 90 89 101 168 121 234 58 514 77 514 368C1104-4 751 54 434 5 267-21 161-112 121-270l247-37c24 111 113 145 252 141 114-3 226-12 226-124 0-101-103-113-192-134-225-54-490-76-490-351 0-247 201-328 458-328 245 0 413 88 457 292l-249 26c-16-98-92-133-208-131" id="at"/><path fill="#e81313" d="M794-190h353V0H118v-190h395v-702H223v-190h571v892zM513-1277v-207h281v207H513" id="au"/><path fill="#e81313" d="M768-1103c247 0 336 167 336 416V0H824v-619c-3-164-24-273-171-273-164 0-229 142-229 312V0H143c-4-359 9-736-8-1082h268c7 63 12 146 13 215h4c67-145 160-236 348-236" id="av"/><path fill="#e81313" d="M1108-33c-3 314-178 467-492 467-243 0-400-94-447-291l281-33c17 79 82 141 174 141 176 0 212-155 205-347-2-40 5-80 0-115C773-85 665-12 501-12c-288 0-377-242-377-538 0-242 65-426 223-510 50-26 108-39 175-39 160 0 253 78 307 191h5c1-58 5-125 14-174h266c-12 335-3 703-6 1049zM811-384c25-82 27-259 1-342-30-99-77-180-190-180-172 0-205 171-205 356 0 116 18 202 54 258 48 76 129 107 221 70 62-25 96-86 119-162" id="aw"/><g id="p"><use transform="matrix(0.008680555555555556,0,0,0.008680555555555556,0,0)" xlink:href="#ao"/><use transform="matrix(0.008680555555555556,0,0,0.008680555555555556,10.668402777777779,0)" xlink:href="#ap"/><use transform="matrix(0.008680555555555556,0,0,0.008680555555555556,21.336805555555557,0)" xlink:href="#aq"/><use transform="matrix(0.008680555555555556,0,0,0.008680555555555556,32.005208333333336,0)" xlink:href="#ar"/><use transform="matrix(0.008680555555555556,0,0,0.008680555555555556,42.673611111111114,0)" xlink:href="#as"/><use transform="matrix(0.008680555555555556,0,0,0.008680555555555556,53.34201388888889,0)" xlink:href="#at"/><use transform="matrix(0.008680555555555556,0,0,0.008680555555555556,64.01041666666667,0)" xlink:href="#at"/><use transform="matrix(0.008680555555555556,0,0,0.008680555555555556,74.67881944444446,0)" xlink:href="#au"/><use transform="matrix(0.008680555555555556,0,0,0.008680555555555556,85.34722222222223,0)" xlink:href="#av"/><use transform="matrix(0.008680555555555556,0,0,0.008680555555555556,96.015625,0)" xlink:href="#aw"/></g><path fill="#e81313" d="M462-1121v384h621v228H462V0H167v-1349h939v228H462" id="ax"/><path fill="#e81313" d="M775-193C708-75 621 20 439 20 226 20 106-93 106-306c0-251 170-341 417-346l223-4c4-143-12-264-148-264-103 0-141 58-150 153l-293-14c37-219 194-321 455-321 263 0 418 130 417 390v392c1 84 5 161 89 160 21 0 42-2 62-6v152c-57 15-108 27-180 26-145 0-202-73-217-205h-6zm-256 17c168 0 234-139 227-325-166 4-347-25-347 173 0 94 33 152 120 152" id="ay"/><path fill="#e81313" d="M794-190h353V0H118v-190h395v-1104H223v-190h571v1294" id="az"/><path fill="#e81313" d="M471 20c-247 0-336-169-336-415v-687h281v607c4 148 31 285 172 285 152 0 207-150 207-312v-580h281c4 359-9 736 8 1082H816c-7-63-11-146-12-215h-5C736-76 644 20 471 20" id="aA"/><g id="q"><use transform="matrix(0.008680555555555556,0,0,0.008680555555555556,0,0)" xlink:href="#ax"/><use transform="matrix(0.008680555555555556,0,0,0.008680555555555556,10.668402777777779,0)" xlink:href="#ay"/><use transform="matrix(0.008680555555555556,0,0,0.008680555555555556,21.336805555555557,0)" xlink:href="#au"/><use transform="matrix(0.008680555555555556,0,0,0.008680555555555556,32.005208333333336,0)" xlink:href="#az"/><use transform="matrix(0.008680555555555556,0,0,0.008680555555555556,42.673611111111114,0)" xlink:href="#aA"/><use transform="matrix(0.008680555555555556,0,0,0.008680555555555556,53.34201388888889,0)" xlink:href="#ap"/><use transform="matrix(0.008680555555555556,0,0,0.008680555555555556,64.01041666666667,0)" xlink:href="#as"/></g><path d="M912-211c-10-84-18-177-18-274v-864h172V0H836L316-1130c7 79 16 167 16 254V0H162v-1349h222" id="aB"/><path d="M615-1102c343 0 484 203 482 560-1 347-147 562-488 562-336 0-475-219-479-562-4-349 156-560 485-560zm-8 989c240 0 301-180 301-429 0-245-55-427-290-427-236 0-299 181-299 427 0 243 61 429 288 429" id="aC"/><path d="M839-1335c-182-6-269 67-259 253h491v142H580V0H400v-940H138v-142h262c-15-293 132-408 418-402 94 2 200 7 281 21v145c-75-10-177-14-260-17" id="aD"/><g id="r"><use transform="matrix(0.008680555555555556,0,0,0.008680555555555556,0,0)" xlink:href="#aB"/><use transform="matrix(0.008680555555555556,0,0,0.008680555555555556,10.668402777777779,0)" xlink:href="#aC"/><use transform="matrix(0.008680555555555556,0,0,0.008680555555555556,21.336805555555557,0)" xlink:href="#O"/><use transform="matrix(0.008680555555555556,0,0,0.008680555555555556,32.005208333333336,0)" xlink:href="#R"/><use transform="matrix(0.008680555555555556,0,0,0.008680555555555556,42.673611111111114,0)" xlink:href="#aD"/><use transform="matrix(0.008680555555555556,0,0,0.008680555555555556,53.34201388888889,0)" xlink:href="#R"/><use transform="matrix(0.008680555555555556,0,0,0.008680555555555556,64.01041666666667,0)" xlink:href="#M"/><use transform="matrix(0.008680555555555556,0,0,0.008680555555555556,74.67881944444446,0)" xlink:href="#X"/></g><path d="M698-1104c312 3 392 244 392 558 0 315-82 566-392 566-169 0-277-65-331-184h-5c8 188 2 394 4 589H185V-858c0-76-1-156-6-224h175c6 52 9 120 10 178h4c58-122 150-202 330-200zm-49 991c225 0 255-203 255-433 0-225-32-419-253-419-236 0-285 192-285 441 0 237 53 411 283 411" id="aE"/><path d="M736-142h380V0H134v-142h422v-1200H267v-142h469v1342" id="aF"/><g id="s"><use transform="matrix(0.008680555555555556,0,0,0.008680555555555556,0,0)" xlink:href="#aE"/><use transform="matrix(0.008680555555555556,0,0,0.008680555555555556,10.668402777777779,0)" xlink:href="#R"/><use transform="matrix(0.008680555555555556,0,0,0.008680555555555556,21.336805555555557,0)" xlink:href="#aE"/><use transform="matrix(0.008680555555555556,0,0,0.008680555555555556,32.005208333333336,0)" xlink:href="#M"/><use transform="matrix(0.008680555555555556,0,0,0.008680555555555556,42.673611111111114,0)" xlink:href="#aF"/><use transform="matrix(0.008680555555555556,0,0,0.008680555555555556,53.34201388888889,0)" xlink:href="#R"/><use transform="matrix(0.008680555555555556,0,0,0.008680555555555556,64.01041666666667,0)" xlink:href="#N"/><use transform="matrix(0.008680555555555556,0,0,0.008680555555555556,74.67881944444446,0)" xlink:href="#M"/></g><path d="M1034 0L896-382H333L196 0H0l510-1349h217L1228 0h-194zM847-531c-77-225-157-447-231-674-69 231-154 451-232 674h463" id="aG"/><path d="M622-1349c296 4 497 117 497 404 0 282-193 424-485 431H353V0H162v-1349h460zm-15 684c195-3 320-88 320-277 0-184-129-255-328-254H353v531h254" id="aH"/><path d="M202-1349h823v156H709v1037h316V0H202v-156h316v-1037H202v-156" id="aI"/><g id="t"><use transform="matrix(0.008680555555555556,0,0,0.008680555555555556,0,0)" xlink:href="#aG"/><use transform="matrix(0.008680555555555556,0,0,0.008680555555555556,10.668402777777779,0)" xlink:href="#aH"/><use transform="matrix(0.008680555555555556,0,0,0.008680555555555556,21.336805555555557,0)" xlink:href="#aI"/></g><g id="u"><use transform="matrix(0.008680555555555556,0,0,0.008680555555555556,0,0)" xlink:href="#aC"/><use transform="matrix(0.008680555555555556,0,0,0.008680555555555556,10.668402777777779,0)" xlink:href="#aD"/></g><path d="M528 20c-247 0-343-132-343-381v-721h180v686c-4 177 45 284 224 277 194-8 279-136 279-336v-627h181c3 360-6 732 6 1082H885c-4-54-7-126-8-185h-3C809-64 714 20 528 20" id="aJ"/><g id="v"><use transform="matrix(0.008680555555555556,0,0,0.008680555555555556,0,0)" xlink:href="#aJ"/><use transform="matrix(0.008680555555555556,0,0,0.008680555555555556,10.668402777777779,0)" xlink:href="#aE"/><use transform="matrix(0.008680555555555556,0,0,0.008680555555555556,21.336805555555557,0)" xlink:href="#aF"/><use transform="matrix(0.008680555555555556,0,0,0.008680555555555556,32.005208333333336,0)" xlink:href="#aC"/><use transform="matrix(0.008680555555555556,0,0,0.008680555555555556,42.673611111111114,0)" xlink:href="#W"/><use transform="matrix(0.008680555555555556,0,0,0.008680555555555556,53.34201388888889,0)" xlink:href="#S"/></g><g id="w"><use transform="matrix(0.008680555555555556,0,0,0.008680555555555556,0,0)" xlink:href="#aD"/><use transform="matrix(0.008680555555555556,0,0,0.008680555555555556,10.668402777777779,0)" xlink:href="#W"/><use transform="matrix(0.008680555555555556,0,0,0.008680555555555556,21.336805555555557,0)" xlink:href="#R"/><use transform="matrix(0.008680555555555556,0,0,0.008680555555555556,32.005208333333336,0)" xlink:href="#aF"/><use transform="matrix(0.008680555555555556,0,0,0.008680555555555556,42.673611111111114,0)" xlink:href="#aJ"/><use transform="matrix(0.008680555555555556,0,0,0.008680555555555556,53.34201388888889,0)" xlink:href="#Q"/><use transform="matrix(0.008680555555555556,0,0,0.008680555555555556,64.01041666666667,0)" xlink:href="#M"/></g></defs></g></svg>